HIERARCHY
ROOT pelvis
{
  OFFSET 0 100 0
  CHANNELS 6 Xposition Yposition Zposition Zrotation Xrotation Yrotation
  JOINT pelvis_right_femur
  {
    OFFSET -10.78128 -3.44521 -0.5502486
    CHANNELS 3 Zrotation Xrotation Yrotation
    JOINT right_femur_tibia
    {
      OFFSET -0.8047443 -44.0398 -0.1307829
      CHANNELS 3 Zrotation Xrotation Yrotation
      JOINT right_tibia_foot
      {
        OFFSET 3.006224 -47.83518 -5
        CHANNELS 3 Zrotation Xrotation Yrotation
        End Site
        {
          OFFSET 0 -5 15
        }
      }
    }
  }
  JOINT pelvis_left_femur
  {
    OFFSET 10.78128 -3.44521 -0.5502486
    CHANNELS 3 Zrotation Xrotation Yrotation
    JOINT left_femur_tibia
    {
      OFFSET 0.8047443 -44.0398 -0.1307829
      CHANNELS 3 Zrotation Xrotation Yrotation
      JOINT left_tibia_foot
      {
        OFFSET -4.370144 -48.10324 -4.275266
        CHANNELS 3 Zrotation Xrotation Yrotation
        End Site
        {
          OFFSET 0 -5 15
        }
      }
    }
  }
  JOINT pelvis_spine1
  {
    OFFSET 0 6.468898 -3.129235
    CHANNELS 3 Zrotation Xrotation Yrotation
    JOINT spine1
    {
      OFFSET 0 23.15396 4.99043
      CHANNELS 3 Zrotation Xrotation Yrotation
      JOINT spine2
      {
        OFFSET 0 20.79997 -5.064912
        CHANNELS 3 Zrotation Xrotation Yrotation
        JOINT neck
        {
          OFFSET 0 14.38658 9.616178
          CHANNELS 3 Zrotation Xrotation Yrotation
          End Site
          {
            OFFSET 0 20 0
          }
        }
      }
      JOINT right_manubrium
      {
        OFFSET -5.722621 16.35077 3.967754
        CHANNELS 3 Zrotation Xrotation Yrotation
        JOINT right_clavicle
        {
          OFFSET -13.16364 1.694482 -4.693211
          CHANNELS 3 Zrotation Xrotation Yrotation
          JOINT right_humerus
          {
            OFFSET -28.5034 -0.3100689 -2.792744
            CHANNELS 3 Zrotation Xrotation Yrotation
            JOINT right_radius
            {
              OFFSET -25.15693 0.02248979 -1.271978
              CHANNELS 3 Zrotation Xrotation Yrotation
              End Site
              {
                OFFSET -15 0 0
              }
            }
          }
        }
      }
      JOINT left_manubrium
      {
        OFFSET 5.722621 16.35077 3.967754
        CHANNELS 3 Zrotation Xrotation Yrotation
        JOINT left_clavicle
        {
          OFFSET 13.16364 1.694482 -4.693211
          CHANNELS 3 Zrotation Xrotation Yrotation
          JOINT left_humerus
          {
            OFFSET 29.39168 -1.063119 -2.237045
            CHANNELS 3 Zrotation Xrotation Yrotation
            JOINT left_radius
            {
              OFFSET 24.59957 -0.9528479 0.9047498
              CHANNELS 3 Zrotation Xrotation Yrotation
              End Site
              {
                OFFSET 15 -0 -0
              }
            }
          }
        }
      }
    }
  }
}
MOTION
Frames: 19
Frame Time: 0.0416666666667
0 103.5113 0 1.468542 -0.09977141 -0.08742094 3.363932 -16.06912 12.21398 -0 39.33939 -0 -5.900239 -19.56732 -4.116861 -8.312002 7.114465 -23.64757 -0 6.484612 -0 18.29896 -11.22896 31.46997 -4.216576 -3.684773 5.952751 2.860832 9.951229 -7.377462 1.973867 21.97329 5.813044 1.761977 -26.14747 10.24625 5.499106 -21.14745 11.80303 86.26729 37.42997 -17.11165 -0 0 15.45759 -4.279151 6.441853 5.090291 4.832358 -18.1616 -0.624067 -90.97435 21.26821 19.99493 0 0 -16.4747 16.28627 12.56786 -3.169053
0.3339563 104.365 1.512867 1.402078 -0.1749388 -0.1455442 3.378366 -17.10341 11.51484 -0 38.65058 -0 -6.12438 -18.63182 -4.01293 -8.182932 7.731172 -23.1686 -0 6.372965 -0 18.01452 -11.70183 30.91889 -4.168134 -3.52671 5.704871 2.84301 9.949368 -7.414252 1.942974 22.07913 5.85109 1.795798 -26.02626 10.16871 5.313116 -20.91254 11.79011 86.63636 37.05658 -17.46361 -0 0 14.78082 -4.81063 6.449369 5.277328 4.902165 -18.51811 -0.8602039 -90.36001 21.26655 19.11701 0 0 -17.34867 16.34849 12.65257 -3.264491
0.6204261 105.0146 3.749934 0.526738 0.7230596 -0.05868286 4.607496 -24.3169 8.392011 -0 31.8482 -0 -5.938709 -12.44556 -2.452659 -7.183141 11.08568 -20.84429 -0 5.233215 -0 13.38076 -16.57673 27.29801 -3.498029 -2.929931 4.77381 2.710944 10.00094 -7.707378 1.690997 21.70596 6.575708 2.822031 -25.48779 9.874223 5.397418 -19.6755 11.55451 87.12786 35.89927 -19.51613 -0 0 13.80749 -7.379759 7.891267 4.90645 6.496106 -20.73069 -1.726932 -90.2908 22.23223 17.90793 0 0 -19.66147 15.01256 14.36148 -2.330254
0.8820496 105.5413 6.435115 -0.1038096 1.557104 0.1238543 5.555073 -28.36786 7.085051 -0 27.28294 -0 -5.811312 -9.002905 -1.594594 -6.551636 12.73715 -19.63796 -0 5.252926 -0 10.12359 -19.31749 24.93682 -3.024496 -2.574446 4.31873 2.698943 9.910686 -7.863501 1.599985 21.3336 6.995521 3.447128 -25.37723 9.803807 5.577795 -18.95032 11.33851 87.10547 35.62922 -20.50042 -0 0 13.66082 -8.419608 8.920573 4.504127 7.402511 -21.7087 -2.000887 -90.9203 23.09978 18.0665 0 0 -20.20539 13.75029 15.36971 -1.249224
1.124438 105.9763 9.574797 -0.5631926 2.40644 0.3854455 6.37219 -31.3465 6.308388 -0 23.22856 -0 -5.835772 -6.415379 -0.9754831 -6.164798 13.86461 -18.53902 -0 5.923215 -0 8.284736 -20.71113 23.1391 -2.67798 -2.336253 4.015908 2.811101 9.878853 -8.00369 1.543211 20.98349 7.23645 3.757821 -25.53133 9.815719 5.562643 -18.42962 11.2053 87.29375 35.5832 -21.26881 -0 0 13.18854 -8.862233 9.495751 4.334735 7.886989 -22.31797 -2.133708 -90.9842 23.21503 17.91595 0 0 -20.96099 13.3644 15.34729 -1.019714
1.351827 106.3649 13.19237 -0.9662169 3.195686 0.7205174 7.146063 -33.61556 5.746887 -0 19.70799 -0 -5.980088 -4.347633 -0.4657987 -5.882584 14.76343 -17.44726 -0 7.369635 -0 7.014001 -21.26162 21.49774 -2.361282 -2.159718 3.734549 2.972252 9.884954 -8.121687 1.477237 20.69423 7.394985 3.901601 -25.69145 9.848635 5.486673 -17.91722 11.13005 87.60351 35.68918 -21.93259 -0 0 12.45664 -9.008051 9.857541 4.246756 8.123679 -22.73997 -2.238283 -90.7167 22.95341 17.51899 0 0 -21.77059 13.45602 14.84475 -1.321842
1.566917 106.7688 17.31812 -1.351537 3.835274 1.118858 7.859682 -35.16209 5.248652 -0 16.84186 -0 -6.254107 -2.764953 -0.05274365 -5.649781 15.51298 -16.34263 -0 9.80611 -0 5.910469 -21.09305 19.80889 -2.020509 -2.014356 3.421697 3.138233 9.893401 -8.201531 1.38704 20.51525 7.499176 3.916689 -25.73291 9.871924 5.373322 -17.3367 11.09112 88.01676 35.86613 -22.51621 -0 0 11.47424 -8.984491 10.06945 4.210796 8.141141 -23.00596 -2.361726 -90.20861 22.53806 16.90765 0 0 -22.56223 13.73571 14.10056 -1.872109
1.774289 107.2698 21.98109 -1.724183 4.236139 1.557625 8.456578 -35.81482 4.72185 -0 14.76955 -0 -6.666573 -1.759254 0.2471251 -5.441986 16.07105 -15.23233 -0 13.50603 -0 4.74998 -20.19122 17.97026 -1.613631 -1.890976 3.077435 3.270422 9.876301 -8.227983 1.262584 20.48531 7.556648 3.817229 -25.5758 9.856257 5.226563 -16.6732 11.07136 88.51537 36.03914 -23.01382 -0 0 10.284 -8.865439 10.14383 4.222905 7.938504 -23.10992 -2.521283 -89.52742 22.10145 16.14315 0 0 -23.2574 13.99434 13.25357 -2.446025
1.983748 107.9705 27.19374 -2.062984 4.310981 1.994514 8.854293 -35.30103 4.110407 -0 13.62736 -0 -7.215678 -1.476238 0.4107603 -5.247177 16.26945 -14.14102 -0 18.76745 -0 3.395488 -18.49912 15.95639 -1.106485 -1.794775 2.755884 3.32546 9.820538 -8.189504 1.093372 20.62326 7.570354 3.626605 -25.16995 9.761998 5.060271 -15.96954 11.05856 89.05103 36.1406 -23.40102 -0 0 9.010679 -8.723293 10.08663 4.283943 7.522323 -23.04414 -2.713723 -88.77223 21.73006 15.3651 0 0 -23.73477 14.0573 12.42205 -2.831378
2.21268 108.9893 32.92882 -2.318283 3.996377 2.366242 8.960712 -33.31951 3.398922 -0 13.46497 -0 -7.8809 -2.019563 0.4329374 -5.060215 15.78425 -13.09477 -0 25.8095 -0 1.79508 -16.00022 13.82698 -0.4872152 -1.737519 2.57625 3.256731 9.743576 -8.084142 0.8670724 20.90843 7.547197 3.401143 -24.51607 9.532799 4.913687 -15.34025 11.05166 89.52763 36.12136 -23.64493 -0 0 7.894196 -8.662016 9.924808 4.396995 6.933356 -22.83262 -2.919406 -88.10046 21.46646 14.8255 0 0 -23.83618 13.78658 11.71205 -2.823233
2.484759 110.4372 39.09125 -2.412463 3.294803 2.60059 8.702741 -29.67697 2.625019 -0 14.10908 -0 -8.612577 -3.312272 0.3608339 -4.879814 14.12834 -12.09168 -0 34.56851 -0 0.01969438 -12.82585 11.73551 0.2008225 -1.721733 2.717607 3.02878 9.714184 -7.925473 0.571337 21.2592 7.503155 3.24412 -23.70235 9.096928 4.859916 -14.97363 11.07381 89.79742 35.98413 -23.71503 -0 0 7.279986 -8.834666 9.732842 4.57173 6.266464 -22.56764 -3.11158 -87.72464 21.28814 14.87689 0 0 -23.41853 13.12482 11.18596 -2.271503
2.821268 112.3722 45.49777 -2.254105 2.314919 2.647567 8.060908 -24.48052 1.870386 -0 15.04688 -0 -9.321501 -4.973747 0.3205705 -4.696146 10.74343 -11.07007 -0 44.40575 -0 -1.691995 -9.360372 9.913055 0.8185337 -1.71626 3.359619 2.64457 9.857124 -7.739777 0.2018144 21.53699 7.460512 3.288189 -22.92173 8.388826 4.995059 -15.08283 11.18703 89.68595 35.83402 -23.58115 -0 0 7.511395 -9.425408 9.647027 4.835241 5.665099 -22.42274 -3.27482 -87.8472 21.08682 15.84719 0 0 -22.4553 12.16631 10.81878 -1.184684
3.224927 114.739 51.8888 -1.776443 1.25794 2.517189 7.103633 -18.27286 1.212434 -0 15.49162 -0 -9.889046 -6.378864 0.4832532 -4.452891 5.271015 -9.908959 -0 53.87272 -0 -2.940653 -6.24007 8.627243 1.127373 -1.640797 4.547019 2.17046 10.30208 -7.544895 -0.2213204 21.61155 7.432165 3.623757 -22.40764 7.402718 5.38958 -15.78046 11.48498 89.04877 35.89838 -23.16978 -0 0 8.711623 -10.57378 9.833405 5.244523 5.269942 -22.58843 -3.42121 -88.51927 20.69783 17.77367 0 0 -21.12354 11.19432 10.50287 0.1618405
3.666908 117.3304 57.99023 -1.002052 0.3078351 2.287418 6.0152 -11.9076 0.664029 -0 14.75637 -0 -10.22619 -7.058617 0.9287495 -3.997126 -2.051677 -8.49147 -0 60.83178 -0 -3.312345 -4.120416 8.151795 0.8924637 -1.389017 6.044605 1.723525 11.05742 -7.31749 -0.6369681 21.48012 7.401611 4.200668 -22.25649 6.255296 6.003464 -16.93585 12.02744 87.82126 36.42062 -22.27213 -0 0 10.60156 -12.2625 10.3776 5.880771 5.13672 -23.10546 -3.580978 -89.52153 20.02663 20.16894 0 0 -19.72331 10.57595 10.14756 1.257189
4.096047 119.8156 63.60567 -0.1007911 -0.509066 2.057074 5.072981 -6.102877 0.158975 -0 12.73657 -0 -10.336 -7.261294 1.502487 -3.099011 -10.19202 -6.811144 -0 63.14292 -0 -2.679031 -3.265106 8.735974 0.09308317 -0.8891377 7.356879 1.399237 11.8869 -6.9794 -0.9496466 21.33419 7.325996 4.805283 -22.25777 5.184045 6.619652 -18.18026 12.72671 86.00529 37.39802 -20.49978 -0 0 12.61893 -14.26412 11.14441 6.804258 5.195542 -23.70245 -3.764572 -90.47055 19.19892 22.17694 0 0 -18.37259 10.48788 9.80473 1.646951
4.47507 121.8402 68.68687 0.6396846 -1.322669 1.871093 4.515931 -1.006867 -0.3984963 -0 9.995788 -0 -10.27873 -8.03552 1.882317 -1.621424 -17.68576 -5.072273 -0 59.66552 -0 -1.438934 -3.319423 10.46291 -0.9438104 -0.162269 8.005122 1.190346 12.35207 -6.429151 -1.067763 21.4521 7.174612 5.182339 -21.97579 4.445049 6.89683 -19.14161 13.30802 83.64036 38.386 -17.46259 -0 0 14.34752 -16.24113 11.77381 7.998862 5.31298 -23.85692 -3.928685 -91.1476 18.53732 23.1723 0 0 -16.7738 10.7003 9.687299 1.322914
4.815452 123.1515 73.35101 0.9690126 -2.231636 1.674159 4.373409 3.764759 -1.066904 -0 7.324312 -0 -10.10678 -10.42029 1.859167 0.248251 -23.40392 -3.714442 -0 50.92857 -0 -0.375439 -3.605016 13.05068 -1.715555 0.6423132 7.857156 0.992022 12.07224 -5.608399 -0.9432567 21.97824 6.96577 5.207337 -21.10258 4.193925 6.574396 -19.69353 13.45546 80.91321 38.71331 -13.17342 -0 0 15.7968 -17.95925 11.92285 9.379825 5.402141 -23.13654 -3.977253 -91.67989 18.33511 23.23714 0 0 -14.43061 10.71648 10.06347 0.7924043
5.176398 123.6908 77.85015 0.8421803 -3.153308 1.33891 4.431706 8.648275 -1.809559 -0 5.356382 -0 -9.885389 -14.3419 1.522562 1.971151 -27.01594 -3.240301 -0 39.02904 -0 -0.1338051 -3.682472 15.9226 -1.925578 1.26382 7.194816 0.6952152 11.0096 -4.559519 -0.5802766 22.80815 6.755737 4.948768 -19.72442 4.439325 5.66599 -19.95237 13.02955 78.30187 38.02261 -8.290679 -0 0 17.19009 -19.43403 11.55965 10.85762 5.462451 -21.53383 -3.805891 -92.35716 18.6339 23.01334 0 0 -11.139 10.18465 11.09025 0.6758117
5.632557 123.6197 82.5013 0.4461353 -3.901599 0.7677637 4.372751 13.68713 -2.446232 -0 4.665648 -0 -9.698326 -18.30666 1.156512 2.944114 -28.78342 -3.886553 -0 26.85953 -0 -0.7597995 -3.568593 18.54917 -1.685833 1.448106 6.483579 0.261805 9.534381 -3.426035 -0.02319222 23.67285 6.589931 4.587482 -18.24343 5.059879 4.442954 -20.09536 12.14936 76.40647 36.5471 -3.821953 -0 0 18.57342 -20.86195 10.97587 12.36079 5.527472 -19.47757 -3.376665 -93.33564 19.16605 23.15189 0 0 -7.216151 9.16671 12.65487 1.226782
